<svg width="207" height="141" viewBox="0 0 207 141" fill="none" xmlns="http://www.w3.org/2000/svg">
<path d="M47.0198 56H29.8045V54.0282H34.8857L29.1978 39.3155H13.4992L7.81136 54.0282H11.6791C11.9319 54.0282 12.1847 54.0535 12.4375 54.104C13.1959 54.2052 13.5751 54.8371 13.5751 56H0V54.0282H4.77782L21.6898 10.4969H25.1025L42.5454 54.0282H45.048C45.3008 54.0282 45.5536 54.0535 45.8064 54.104C46.6153 54.2052 47.0198 54.8371 47.0198 56ZM28.2877 37.1162L21.3106 18.9909L14.3335 37.1162H28.2877ZM74.7949 56H40.8193V54.0282H46.8863V12.4687H40.8193V10.4969H60.6131V12.4687H54.1668V54.0282H64.1017C64.8095 54.0282 65.492 53.9524 66.1493 53.8007C68.93 53.0929 70.9018 50.5144 72.0647 46.0652L73.5056 40.6048H75.1741L74.7949 56ZM126.232 10.4969V12.4687H120.164V54.0282H124.26C124.513 54.0282 124.765 54.0535 125.018 54.104C125.827 54.2557 126.232 54.8877 126.232 56H107.196V54.0282H113.263V17.5499L96.0478 56.455H94.4552L77.9225 22.1761V54.0282H82.0177C82.2705 54.0282 82.5233 54.0535 82.7761 54.104C83.5851 54.2557 83.9895 54.8877 83.9895 56H68.8218V54.0282H74.8889V12.4687H68.8218V10.4969H80.1976L97.4888 46.6719L113.263 10.4969H126.232ZM63.8741 105H44.4595V103.028H50.5266V61.4687H44.4595V59.4969H67.5144C71.458 59.4969 74.7949 60.407 77.5251 62.2271C80.8114 64.5023 82.4546 67.5358 82.4546 71.3277C82.4546 72.8445 82.1512 74.336 81.5445 75.8022C79.8255 79.6447 76.5392 82.1979 71.6855 83.4619L83.8196 103.028H86.3223C86.6257 103.028 86.9037 103.053 87.1565 103.104C87.8138 103.205 88.1424 103.837 88.1424 105H76.3116L64.3292 84.1444H57.8071V103.028H63.8741V105ZM64.7842 61.4687H57.8071V81.9451H65.0876C67.2616 81.9451 69.1323 81.3131 70.6996 80.0492C73.2276 78.0774 74.4915 75.2208 74.4915 71.4794C74.4915 69.8615 74.1882 68.3195 73.5815 66.8533C71.9636 63.2636 69.0312 61.4687 64.7842 61.4687ZM110.23 84.4478H129.72V86.4196H124.184V105L117.207 102.801C117.005 102.902 116.777 103.028 116.524 103.18C113.39 104.899 109.876 105.758 105.983 105.758C100.725 105.758 96.0226 104.191 91.8767 101.056C86.0119 96.6072 83.0795 90.2368 83.0795 81.9451C83.0795 74.8669 85.4052 69.1537 90.0566 64.8056C94.4047 60.7609 99.6881 58.7386 105.907 58.7386C109.598 58.7386 113.036 59.5222 116.221 61.0896L122.97 59.6486L123.274 74.6646H121.226C120.164 70.6705 118.9 67.6622 117.434 65.6399C115.109 62.5052 111.367 60.9379 106.21 60.9379C105.199 60.9379 104.213 61.0137 103.252 61.1654C95.4158 62.6316 91.4975 69.6593 91.4975 82.2485C91.4975 83.5124 91.5481 84.7511 91.6492 85.9646C92.4076 97.6437 97.2865 103.483 106.286 103.483C110.432 103.281 113.996 101.764 116.979 98.9329V86.4196H110.23V84.4478Z" fill="#2F5597"/>
<path d="M166.292 56H149.077V54.0282H154.158L148.47 39.3155H132.772L127.084 54.0282H130.952C131.205 54.0282 131.457 54.0535 131.71 54.104C132.468 54.2052 132.848 54.8371 132.848 56H119.273V54.0282H124.05L140.962 10.4969H144.375L161.818 54.0282H164.321C164.573 54.0282 164.826 54.0535 165.079 54.104C165.888 54.2052 166.292 54.8371 166.292 56ZM147.56 37.1162L140.583 18.9909L133.606 37.1162H147.56ZM34.5065 61.4687V59.4969H49.9775V61.4687H43.9104V104.621L40.2702 105.379L10.5415 68.5976V103.028H15.016C15.2688 103.028 15.5216 103.053 15.7744 103.104C16.5833 103.256 16.9878 103.888 16.9878 105H1.44093V103.028H7.508V61.4687H1.44093V59.4969H12.4375L40.8769 94.6101V61.4687H34.5065Z" fill="#E1B090"/>
<path d="M0 106.667L43.0227 106.663C123.746 178.176 221.375 119.766 202.67 41.2969L165.014 41.3013" stroke="url(#paint0_linear_141_20)" stroke-width="3"/>
<defs>
<linearGradient id="paint0_linear_141_20" x1="101.982" y1="41.2969" x2="101.982" y2="140.416" gradientUnits="userSpaceOnUse">
<stop offset="0.9999" stop-color="#E4BCA2"/>
<stop offset="1" stop-color="#E1B090" stop-opacity="0"/>
</linearGradient>
</defs>
</svg>
