<svg width="281" height="47" viewBox="0 0 281 47" fill="none" xmlns="http://www.w3.org/2000/svg">
<path d="M2.61975 9.17188V1.07576H0.131739V0.430221H6.14331V1.07576H3.64185V9.17188H2.61975ZM10.6209 9.30636C9.84086 9.30636 9.16842 9.12705 8.60358 8.76841C8.0477 8.40978 7.62182 7.89425 7.32595 7.22181C7.03008 6.54041 6.88214 5.73797 6.88214 4.8145C6.88214 3.89102 7.03008 3.09306 7.32595 2.42063C7.62182 1.73923 8.0477 1.21921 8.60358 0.860579C9.16842 0.492981 9.84086 0.309182 10.6209 0.309182C11.4009 0.309182 12.0733 0.492981 12.6382 0.860579C13.203 1.21921 13.6334 1.73923 13.9293 2.42063C14.2341 3.09306 14.3865 3.89102 14.3865 4.8145C14.3865 5.73797 14.2341 6.54041 13.9293 7.22181C13.6334 7.89425 13.203 8.40978 12.6382 8.76841C12.0733 9.12705 11.4009 9.30636 10.6209 9.30636ZM10.6209 8.66082C11.4816 8.66082 12.1406 8.33357 12.5978 7.67907C13.0641 7.02457 13.2972 6.06971 13.2972 4.8145C13.2972 3.56825 13.0641 2.61339 12.5978 1.94992C12.1406 1.28646 11.4816 0.95472 10.6209 0.95472C9.76913 0.95472 9.11463 1.28646 8.65737 1.94992C8.20012 2.61339 7.97149 3.56825 7.97149 4.8145C7.97149 6.06971 8.19563 7.02457 8.64392 7.67907C9.10118 8.33357 9.76017 8.66082 10.6209 8.66082ZM16.3002 0.430221H18.5058C19.3845 0.430221 20.0614 0.631951 20.5366 1.03541C21.0207 1.42991 21.2628 1.95441 21.2628 2.60891C21.2628 3.09306 21.1418 3.49652 20.8997 3.81929C20.6576 4.14206 20.3573 4.39759 19.9986 4.58587C20.5186 4.72932 20.9266 4.98036 21.2225 5.339C21.5273 5.69763 21.6797 6.1504 21.6797 6.69731C21.6797 7.4863 21.4152 8.09598 20.8862 8.52634C20.3662 8.9567 19.5772 9.17188 18.5193 9.17188H16.3002V0.430221ZM18.9093 4.38414C19.0976 4.38414 19.2948 4.33034 19.501 4.22275C19.7162 4.11516 19.9 3.93585 20.0524 3.68481C20.2048 3.4248 20.281 3.08858 20.281 2.67615C20.281 2.12924 20.1152 1.71681 19.7834 1.43887C19.4517 1.16093 19.0124 1.02196 18.4655 1.02196H17.3223V4.38414H18.9093ZM18.4789 8.58013C19.9403 8.58013 20.6711 7.93908 20.6711 6.65697C20.6711 6.08316 20.5142 5.6528 20.2003 5.36589C19.8865 5.07899 19.4741 4.93553 18.9631 4.93553H17.3223V8.58013H18.4789ZM22.6345 9.17188L25.5797 0.430221H26.7767L29.6681 9.17188H28.6057L27.6912 6.48214H24.2618L23.3472 9.17188H22.6345ZM24.45 5.93074H27.5163L25.9966 1.21025L24.45 5.93074ZM31.233 0.430221H33.331C34.2276 0.430221 34.9224 0.663331 35.4156 1.12955C35.9176 1.59577 36.1687 2.28614 36.1687 3.20065C36.1687 3.88205 36.0342 4.44242 35.7652 4.88174C35.4962 5.3121 35.1466 5.6259 34.7162 5.82315C34.2948 6.01143 33.8421 6.10557 33.3579 6.10557H32.2551V9.17188H31.233V0.430221ZM33.21 5.54073C34.4652 5.54073 35.0928 4.77415 35.0928 3.241C35.0928 2.48787 34.9314 1.93199 34.6086 1.57336C34.2859 1.20576 33.8241 1.02196 33.2234 1.02196H32.2551V5.54073H33.21ZM37.9048 9.17188V0.430221H38.9269V7.46389L38.8597 7.9077H38.8731L43.1229 0.578156L43.1902 0.430221H44.145V9.17188H43.1364V2.20545L43.1902 1.70785H43.1767L38.9404 9.02394L38.8731 9.17188H37.9048ZM49.8922 9.30636C48.6819 9.30636 47.7404 8.91635 47.068 8.13633C46.3956 7.34733 46.0594 6.26247 46.0594 4.88174C46.0594 3.95826 46.2118 3.15134 46.5166 2.46097C46.8304 1.77061 47.2697 1.24163 47.8346 0.874028C48.4084 0.497464 49.0719 0.309182 49.825 0.309182C50.2374 0.309182 50.6319 0.362977 51.0085 0.470567C51.394 0.578156 51.7213 0.699195 51.9902 0.833682C52.2592 0.968169 52.3937 1.0399 52.3937 1.04886L52.2727 1.6944C52.2727 1.68543 52.1427 1.61819 51.8826 1.49267C51.6226 1.36715 51.3178 1.25059 50.9681 1.143C50.6274 1.03541 50.2822 0.981618 49.9326 0.981618C49.0629 0.981618 48.3815 1.31335 47.8884 1.97682C47.3953 2.63132 47.1487 3.59067 47.1487 4.85484C47.1487 6.10109 47.3997 7.0425 47.9018 7.67907C48.4039 8.31564 49.1077 8.63393 50.0133 8.63393C50.4885 8.63393 50.9054 8.5353 51.264 8.33806C51.6226 8.14081 51.9051 7.93011 52.1113 7.70597C52.3264 7.48182 52.434 7.35182 52.434 7.31595L52.8106 7.74631C52.8106 7.79114 52.694 7.94804 52.4609 8.21702C52.2278 8.47703 51.8916 8.72359 51.4523 8.9567C51.0219 9.18981 50.5019 9.30636 49.8922 9.30636ZM55.6659 9.17188V1.07576H53.1779V0.430221H59.1895V1.07576H56.688V9.17188H55.6659ZM60.547 0.430221H62.7526C63.6312 0.430221 64.3081 0.631951 64.7833 1.03541C65.2675 1.42991 65.5095 1.95441 65.5095 2.60891C65.5095 3.09306 65.3885 3.49652 65.1464 3.81929C64.9043 4.14206 64.604 4.39759 64.2454 4.58587C64.7654 4.72932 65.1733 4.98036 65.4692 5.339C65.774 5.69763 65.9264 6.1504 65.9264 6.69731C65.9264 7.4863 65.662 8.09598 65.133 8.52634C64.613 8.9567 63.824 9.17188 62.766 9.17188H60.547V0.430221ZM63.156 4.38414C63.3443 4.38414 63.5415 4.33034 63.7478 4.22275C63.9629 4.11516 64.1467 3.93585 64.2992 3.68481C64.4516 3.4248 64.5278 3.08858 64.5278 2.67615C64.5278 2.12924 64.3619 1.71681 64.0302 1.43887C63.6984 1.16093 63.2591 1.02196 62.7122 1.02196H61.5691V4.38414H63.156ZM62.7257 8.58013C64.1871 8.58013 64.9178 7.93908 64.9178 6.65697C64.9178 6.08316 64.7609 5.6528 64.4471 5.36589C64.1333 5.07899 63.7209 4.93553 63.2098 4.93553H61.5691V8.58013H62.7257ZM70.9562 9.30636C70.1761 9.30636 69.5037 9.12705 68.9388 8.76841C68.383 8.40978 67.9571 7.89425 67.6612 7.22181C67.3653 6.54041 67.2174 5.73797 67.2174 4.8145C67.2174 3.89102 67.3653 3.09306 67.6612 2.42063C67.9571 1.73923 68.383 1.21921 68.9388 0.860579C69.5037 0.492981 70.1761 0.309182 70.9562 0.309182C71.7362 0.309182 72.4086 0.492981 72.9735 0.860579C73.5383 1.21921 73.9687 1.73923 74.2645 2.42063C74.5694 3.09306 74.7218 3.89102 74.7218 4.8145C74.7218 5.73797 74.5694 6.54041 74.2645 7.22181C73.9687 7.89425 73.5383 8.40978 72.9735 8.76841C72.4086 9.12705 71.7362 9.30636 70.9562 9.30636ZM70.9562 8.66082C71.8169 8.66082 72.4759 8.33357 72.9331 7.67907C73.3993 7.02457 73.6324 6.06971 73.6324 4.8145C73.6324 3.56825 73.3993 2.61339 72.9331 1.94992C72.4759 1.28646 71.8169 0.95472 70.9562 0.95472C70.1044 0.95472 69.4499 1.28646 68.9926 1.94992C68.5354 2.61339 68.3068 3.56825 68.3068 4.8145C68.3068 6.06971 68.5309 7.02457 68.9792 7.67907C69.4364 8.33357 70.0954 8.66082 70.9562 8.66082ZM81.442 9.30636C80.7965 9.30636 80.2765 9.20774 79.882 9.01049C79.4875 8.80428 79.2051 8.5891 79.0347 8.36495C78.8644 8.13184 78.7792 7.98839 78.7792 7.93459L79.1558 7.46389C79.1558 7.49975 79.232 7.62079 79.3844 7.82701C79.5458 8.02425 79.7878 8.21253 80.1106 8.39185C80.4334 8.5622 80.8413 8.64738 81.3345 8.64738C81.9441 8.64738 82.4148 8.48151 82.7466 8.14977C83.0873 7.81804 83.2576 7.34285 83.2576 6.72421C83.2576 5.56762 82.6928 4.98933 81.5631 4.98933L80.3123 5.04312V4.39759L81.6303 4.45138C81.8455 4.44242 82.0607 4.36621 82.2759 4.22275C82.491 4.0793 82.6704 3.8686 82.8138 3.59067C82.9573 3.31273 83.029 2.98099 83.029 2.59546C83.029 1.49267 82.4821 0.941271 81.3882 0.941271C81.0834 0.941271 80.792 0.990583 80.5141 1.08921C80.2361 1.17887 79.9985 1.28197 79.8013 1.39853C79.613 1.50612 79.5189 1.56439 79.5189 1.57336L79.3978 0.995066C79.3978 0.9861 79.5054 0.92334 79.7206 0.806784C79.9358 0.681263 80.2048 0.569191 80.5275 0.470567C80.8503 0.362977 81.191 0.309182 81.5496 0.309182C82.3745 0.309182 83.0021 0.50643 83.4324 0.900926C83.8628 1.29542 84.078 1.83337 84.078 2.51477C84.078 3.02582 83.939 3.46066 83.6611 3.81929C83.3921 4.17792 83.0604 4.45586 82.6659 4.65311C83.2038 4.76967 83.6207 4.9983 83.9166 5.339C84.2214 5.6797 84.3739 6.1504 84.3739 6.75111C84.3739 7.25319 84.2528 7.697 84.0107 8.08253C83.7776 8.46806 83.4369 8.76841 82.9886 8.98359C82.5493 9.19877 82.0338 9.30636 81.442 9.30636ZM92.5345 9.30636C91.7545 9.30636 91.082 9.12705 90.5172 8.76841C89.9613 8.40978 89.5354 7.89425 89.2396 7.22181C88.9437 6.54041 88.7957 5.73797 88.7957 4.8145C88.7957 3.89102 88.9437 3.09306 89.2396 2.42063C89.5354 1.73923 89.9613 1.21921 90.5172 0.860579C91.082 0.492981 91.7545 0.309182 92.5345 0.309182C93.3145 0.309182 93.9869 0.492981 94.5518 0.860579C95.1166 1.21921 95.547 1.73923 95.8429 2.42063C96.1477 3.09306 96.3001 3.89102 96.3001 4.8145C96.3001 5.73797 96.1477 6.54041 95.8429 7.22181C95.547 7.89425 95.1166 8.40978 94.5518 8.76841C93.9869 9.12705 93.3145 9.30636 92.5345 9.30636ZM92.5345 8.66082C93.3952 8.66082 94.0542 8.33357 94.5114 7.67907C94.9777 7.02457 95.2108 6.06971 95.2108 4.8145C95.2108 3.56825 94.9777 2.61339 94.5114 1.94992C94.0542 1.28646 93.3952 0.95472 92.5345 0.95472C91.6827 0.95472 91.0282 1.28646 90.571 1.94992C90.1137 2.61339 89.8851 3.56825 89.8851 4.8145C89.8851 6.06971 90.1092 7.02457 90.5575 7.67907C91.0148 8.33357 91.6738 8.66082 92.5345 8.66082ZM98.2138 0.430221H102.625V1.07576H99.2359V3.95378H100.245C101.276 3.95378 102.074 4.16448 102.638 4.58587C103.203 5.00726 103.486 5.63487 103.486 6.46869C103.486 7.3294 103.217 7.99736 102.679 8.47254C102.141 8.93876 101.352 9.17188 100.312 9.17188H98.2138V0.430221ZM100.271 8.58013C101.007 8.58013 101.554 8.41426 101.912 8.08253C102.271 7.74183 102.45 7.21285 102.45 6.49558C102.45 5.80522 102.262 5.30313 101.885 4.98933C101.518 4.67553 100.971 4.51863 100.245 4.51863H99.2359V8.58013H100.271ZM105.385 9.17188L105.425 0.430221L105.452 0.470567L105.439 0.430221H106.689L109.769 7.92115H109.782L112.862 0.430221H114.046L114.086 9.17188H113.091L113.05 1.68095H113.037L110.011 9.17188H109.191L106.151 1.68095L106.124 9.17188H105.385ZM116.614 9.17188V0.430221H121.321V1.07576H117.636V4.43793H121.012V5.05657H117.636V8.52634H121.617V9.17188H116.614ZM122.731 9.17188L125.353 4.41104L122.973 0.430221H123.82L125.972 4.14206H127.276V0.430221H128.285V4.12861H129.536L131.943 0.430221H132.79L130.195 4.2362L133.194 9.17188H131.997L129.415 4.77415H128.285V9.17188H127.276V4.77415H126.147L123.914 9.17188H122.731ZM135.027 9.17188V0.430221H139.734V1.07576H136.049V4.43793H139.425V5.05657H136.049V8.52634H140.03V9.17188H135.027ZM141.843 9.17188V0.430221H142.865V4.35724H146.86V0.430221H147.882V9.17188H146.86V4.97588H142.865V9.17188H141.843ZM156.834 9.30636C155.705 9.30636 154.808 8.93876 154.145 8.20357C153.49 7.46837 153.136 6.45075 153.082 5.15071H151.442V9.17188H150.419V0.430221H151.442V4.53207H153.082C153.127 3.22307 153.477 2.192 154.131 1.43887C154.795 0.685746 155.696 0.309182 156.834 0.309182C157.615 0.309182 158.287 0.492981 158.852 0.860579C159.426 1.21921 159.86 1.73923 160.156 2.42063C160.461 3.09306 160.614 3.89102 160.614 4.8145C160.614 5.73797 160.461 6.53593 160.156 7.20836C159.86 7.8808 159.426 8.40082 158.852 8.76841C158.287 9.12705 157.615 9.30636 156.834 9.30636ZM156.834 8.68772C157.695 8.68772 158.354 8.35599 158.811 7.69252C159.278 7.02008 159.511 6.06074 159.511 4.8145C159.511 3.57722 159.278 2.62236 158.811 1.94992C158.345 1.26852 157.686 0.927823 156.834 0.927823C155.983 0.927823 155.324 1.26852 154.858 1.94992C154.391 2.62236 154.158 3.57722 154.158 4.8145C154.158 6.06074 154.391 7.02008 154.858 7.69252C155.324 8.35599 155.983 8.68772 156.834 8.68772ZM165.654 0.430221H167.86C168.739 0.430221 169.415 0.631951 169.891 1.03541C170.375 1.42991 170.617 1.95441 170.617 2.60891C170.617 3.09306 170.496 3.49652 170.254 3.81929C170.012 4.14206 169.711 4.39759 169.353 4.58587C169.873 4.72932 170.281 4.98036 170.577 5.339C170.881 5.69763 171.034 6.1504 171.034 6.69731C171.034 7.4863 170.769 8.09598 170.24 8.52634C169.72 8.9567 168.931 9.17188 167.873 9.17188H165.654V0.430221ZM168.263 4.38414C168.452 4.38414 168.649 4.33034 168.855 4.22275C169.07 4.11516 169.254 3.93585 169.407 3.68481C169.559 3.4248 169.635 3.08858 169.635 2.67615C169.635 2.12924 169.469 1.71681 169.138 1.43887C168.806 1.16093 168.366 1.02196 167.82 1.02196H166.676V4.38414H168.263ZM167.833 8.58013C169.294 8.58013 170.025 7.93908 170.025 6.65697C170.025 6.08316 169.868 5.6528 169.554 5.36589C169.241 5.07899 168.828 4.93553 168.317 4.93553H166.676V8.58013H167.833ZM172.943 9.17188V0.430221H173.966V9.17188H172.943ZM175.682 8.52634H176.408C176.785 7.77321 177.067 6.78697 177.256 5.56762C177.444 4.33931 177.538 2.62684 177.538 0.430221H181.99V8.52634H183.012L182.85 11.4447H182.191L182.043 9.17188H176.597L176.355 11.4447H175.749L175.682 8.52634ZM180.981 8.52634V1.07576H178.251C178.233 3.02134 178.13 4.56345 177.942 5.70211C177.753 6.84077 177.484 7.78218 177.135 8.52634H180.981ZM184.724 9.17188V0.430221H190.561V9.17188H189.539V1.07576H185.746V9.17188H184.724ZM196.223 9.30636C195.443 9.30636 194.771 9.12705 194.206 8.76841C193.65 8.40978 193.224 7.89425 192.928 7.22181C192.633 6.54041 192.485 5.73797 192.485 4.8145C192.485 3.89102 192.633 3.09306 192.928 2.42063C193.224 1.73923 193.65 1.21921 194.206 0.860579C194.771 0.492981 195.443 0.309182 196.223 0.309182C197.003 0.309182 197.676 0.492981 198.241 0.860579C198.806 1.21921 199.236 1.73923 199.532 2.42063C199.837 3.09306 199.989 3.89102 199.989 4.8145C199.989 5.73797 199.837 6.54041 199.532 7.22181C199.236 7.89425 198.806 8.40978 198.241 8.76841C197.676 9.12705 197.003 9.30636 196.223 9.30636ZM196.223 8.66082C197.084 8.66082 197.743 8.33357 198.2 7.67907C198.667 7.02457 198.9 6.06971 198.9 4.8145C198.9 3.56825 198.667 2.61339 198.2 1.94992C197.743 1.28646 197.084 0.95472 196.223 0.95472C195.372 0.95472 194.717 1.28646 194.26 1.94992C193.803 2.61339 193.574 3.56825 193.574 4.8145C193.574 6.06971 193.798 7.02457 194.246 7.67907C194.704 8.33357 195.363 8.66082 196.223 8.66082ZM201.903 0.430221H204.108C204.987 0.430221 205.664 0.631951 206.139 1.03541C206.623 1.42991 206.865 1.95441 206.865 2.60891C206.865 3.09306 206.744 3.49652 206.502 3.81929C206.26 4.14206 205.96 4.39759 205.601 4.58587C206.121 4.72932 206.529 4.98036 206.825 5.339C207.13 5.69763 207.282 6.1504 207.282 6.69731C207.282 7.4863 207.018 8.09598 206.489 8.52634C205.969 8.9567 205.18 9.17188 204.122 9.17188H201.903V0.430221ZM204.512 4.38414C204.7 4.38414 204.897 4.33034 205.104 4.22275C205.319 4.11516 205.503 3.93585 205.655 3.68481C205.807 3.4248 205.884 3.08858 205.884 2.67615C205.884 2.12924 205.718 1.71681 205.386 1.43887C205.054 1.16093 204.615 1.02196 204.068 1.02196H202.925V4.38414H204.512ZM204.081 8.58013C205.543 8.58013 206.274 7.93908 206.274 6.65697C206.274 6.08316 206.117 5.6528 205.803 5.36589C205.489 5.07899 205.077 4.93553 204.566 4.93553H202.925V8.58013H204.081ZM209.192 9.17188V0.430221H210.214V9.17188H209.192ZM211.931 8.52634H212.657C213.033 7.77321 213.316 6.78697 213.504 5.56762C213.692 4.33931 213.787 2.62684 213.787 0.430221H218.238V8.52634H219.26L219.099 11.4447H218.44L218.292 9.17188H212.845L212.603 11.4447H211.998L211.931 8.52634ZM217.229 8.52634V1.07576H214.499C214.481 3.02134 214.378 4.56345 214.19 5.70211C214.002 6.84077 213.733 7.78218 213.383 8.52634H217.229ZM220.018 9.17188L222.963 0.430221H224.16L227.051 9.17188H225.989L225.074 6.48214H221.645L220.731 9.17188H220.018ZM221.833 5.93074H224.9L223.38 1.21025L221.833 5.93074ZM228.186 9.26602C228.025 9.26602 227.895 9.25257 227.796 9.22567C227.706 9.20774 227.652 9.19429 227.635 9.18532L227.675 8.45909C227.693 8.46806 227.733 8.48151 227.796 8.49944C227.859 8.50841 227.93 8.51289 228.011 8.51289C229.275 8.51289 229.907 5.81867 229.907 0.430221H234.171V9.17188H233.162V1.07576H230.607C230.598 3.74757 230.383 5.7828 229.961 7.18147C229.54 8.57117 228.948 9.26602 228.186 9.26602ZM236.707 0.430221H237.729V3.95378H238.764C239.786 3.95378 240.575 4.16448 241.131 4.58587C241.696 5.00726 241.978 5.63487 241.978 6.46869C241.978 7.3294 241.709 7.99736 241.171 8.47254C240.643 8.93876 239.858 9.17188 238.818 9.17188H236.707V0.430221ZM238.791 8.58013C239.517 8.58013 240.055 8.40978 240.405 8.06908C240.764 7.71942 240.943 7.19492 240.943 6.49558C240.943 5.81418 240.755 5.31658 240.378 5.00278C240.01 4.68001 239.472 4.51863 238.764 4.51863H237.729V8.58013H238.791ZM243.877 9.17188V0.430221H244.9V4.35724H248.894V0.430221H249.916V9.17188H248.894V4.97588H244.9V9.17188H243.877ZM252.454 9.17188V0.430221H253.476V9.17188H252.454ZM259.227 9.30636C258.017 9.30636 257.075 8.91635 256.403 8.13633C255.73 7.34733 255.394 6.26247 255.394 4.88174C255.394 3.95826 255.547 3.15134 255.851 2.46097C256.165 1.77061 256.605 1.24163 257.169 0.874028C257.743 0.497464 258.407 0.309182 259.16 0.309182C259.572 0.309182 259.967 0.362977 260.343 0.470567C260.729 0.578156 261.056 0.699195 261.325 0.833682C261.594 0.968169 261.728 1.0399 261.728 1.04886L261.607 1.6944C261.607 1.68543 261.477 1.61819 261.217 1.49267C260.957 1.36715 260.653 1.25059 260.303 1.143C259.962 1.03541 259.617 0.981618 259.267 0.981618C258.398 0.981618 257.716 1.31335 257.223 1.97682C256.73 2.63132 256.483 3.59067 256.483 4.85484C256.483 6.10109 256.735 7.0425 257.237 7.67907C257.739 8.31564 258.442 8.63393 259.348 8.63393C259.823 8.63393 260.24 8.5353 260.599 8.33806C260.957 8.14081 261.24 7.93011 261.446 7.70597C261.661 7.48182 261.769 7.35182 261.769 7.31595L262.145 7.74631C262.145 7.79114 262.029 7.94804 261.796 8.21702C261.563 8.47703 261.226 8.72359 260.787 8.9567C260.357 9.18981 259.837 9.30636 259.227 9.30636ZM265.001 9.17188V1.07576H262.513V0.430221H268.524V1.07576H266.023V9.17188H265.001ZM276.297 9.30636C275.167 9.30636 274.27 8.93876 273.607 8.20357C272.953 7.46837 272.598 6.45075 272.545 5.15071H270.904V9.17188H269.882V0.430221H270.904V4.53207H272.545C272.589 3.22307 272.939 2.192 273.594 1.43887C274.257 0.685746 275.158 0.309182 276.297 0.309182C277.077 0.309182 277.749 0.492981 278.314 0.860579C278.888 1.21921 279.323 1.73923 279.619 2.42063C279.923 3.09306 280.076 3.89102 280.076 4.8145C280.076 5.73797 279.923 6.53593 279.619 7.20836C279.323 7.8808 278.888 8.40082 278.314 8.76841C277.749 9.12705 277.077 9.30636 276.297 9.30636ZM276.297 8.68772C277.157 8.68772 277.816 8.35599 278.274 7.69252C278.74 7.02008 278.973 6.06074 278.973 4.8145C278.973 3.57722 278.74 2.62236 278.274 1.94992C277.807 1.26852 277.149 0.927823 276.297 0.927823C275.445 0.927823 274.786 1.26852 274.32 1.94992C273.854 2.62236 273.62 3.57722 273.62 4.8145C273.62 6.06074 273.854 7.02008 274.32 7.69252C274.786 8.35599 275.445 8.68772 276.297 8.68772ZM0.718998 40.1719L8.46545 16.8608H13.9525L21.1969 40.1719H15.9609L13.9525 33.6448H5.84744L3.73151 40.1719H0.718998ZM6.5647 31.3854H13.2711L10.0793 20.4113H10.0076L6.5647 31.3854ZM24.654 40.5305C24.0802 40.5305 23.614 40.4827 23.2554 40.3871C22.8967 40.3153 22.7174 40.2675 22.7174 40.2436L22.8967 37.0876C22.9685 37.1115 23.1119 37.1474 23.3271 37.1952C23.5423 37.243 23.7575 37.267 23.9726 37.267C25.6463 37.267 26.8776 35.677 27.6665 32.4972C28.4794 29.2934 28.8859 24.0813 28.8859 16.8608H41.6173V40.1719H36.6682V19.4429H31.7191C31.6952 26.496 31.0735 31.7799 29.8542 35.2945C28.6349 38.7852 26.9015 40.5305 24.654 40.5305ZM47.1377 16.8608H52.0869V25.7907H53.7724C56.7132 25.7907 58.9726 26.3645 60.5506 27.5122C62.1286 28.6598 62.9175 30.3812 62.9175 32.6765C62.9175 35.0673 62.1525 36.9203 60.6223 38.2353C59.116 39.5263 56.8806 40.1719 53.9159 40.1719H47.1377V16.8608ZM53.8083 37.8408C55.2189 37.8408 56.235 37.4582 56.8567 36.6931C57.4783 35.9042 57.7891 34.6131 57.7891 32.8199C57.7891 31.0507 57.4663 29.8194 56.8208 29.126C56.1753 28.4087 55.1591 28.0501 53.7724 28.0501H52.0869V37.8408H53.8083ZM66.9606 40.1719L67.2475 16.8608H73.2366L79.7637 34.0393H79.9072L86.3267 16.8608H91.8855L92.1365 40.1719H87.295L87.044 22.5272H86.9364L80.4451 40.1719H76.7512L70.26 22.5272H70.1524L70.0448 40.1719H66.9606ZM95.5954 40.1719L103.342 16.8608H108.829L116.073 40.1719H110.837L108.829 33.6448H100.724L98.6079 40.1719H95.5954ZM101.441 31.3854H108.147L104.956 20.4113H104.884L101.441 31.3854ZM128.635 40.1719V16.8608H142.622V19.4429H133.585V27.1177H141.546V29.6281H133.585V37.5897H143.124V40.1719H128.635ZM147.443 40.1719V16.8608H152.392V27.0459H160.461V16.8608H165.41V40.1719H160.461V29.5564H152.392V40.1719H147.443ZM170.943 40.1719V16.8608H184.929V19.4429H175.892V27.1177H183.854V29.6281H175.892V37.5897H185.432V40.1719H170.943ZM189.75 16.8608H196.887C199.541 16.8608 201.597 17.5302 203.055 18.8691C204.538 20.1841 205.279 22.1446 205.279 24.7507C205.279 26.6156 204.872 28.1577 204.059 29.3771C203.246 30.5964 202.206 31.493 200.939 32.0668C199.672 32.6167 198.357 32.8916 196.994 32.8916H194.699V40.1719H189.75V16.8608ZM196.421 30.5964C197.616 30.5964 198.501 30.19 199.074 29.3771C199.648 28.5402 199.935 27.0699 199.935 24.9659C199.935 22.838 199.648 21.3437 199.074 20.483C198.501 19.6223 197.616 19.1919 196.421 19.1919H194.699V30.5964H196.421ZM206.936 37.5897H209.339C210.343 35.4858 211.048 32.9156 211.454 29.8791C211.885 26.8188 212.1 22.4794 212.1 16.8608H225.549V37.5897H228.454L227.593 46.4479H224.796L224.007 40.1719H211.239L209.805 46.4479H207.33L206.936 37.5897ZM220.6 37.5897V19.4429H215.005C214.957 24.0573 214.718 27.7393 214.288 30.4888C213.857 33.2144 213.188 35.5814 212.279 37.5897H220.6ZM230.049 40.1719L236.755 26.5439L231.089 16.8608H234.639L239.409 25.6831H242.601V16.8608H247.55V25.6831H250.348L255.942 16.8608H259.493L253.181 25.7549L260.64 40.1719H254.866L249.343 28.2653H247.55V40.1719H242.601V28.3012H240.557L235.859 40.1719H230.049ZM264.138 40.1719V16.8608H269.087V40.1719H264.138Z" fill="#2F5597"/>
</svg>
