<svg width="492" height="132" viewBox="0 0 492 132" fill="none" xmlns="http://www.w3.org/2000/svg">
<path d="M213.62 43.1719V35.0758H211.132V34.4302H217.143V35.0758H214.642V43.1719H213.62ZM221.621 43.3064C220.841 43.3064 220.168 43.127 219.604 42.7684C219.048 42.4098 218.622 41.8942 218.326 41.2218C218.03 40.5404 217.882 39.738 217.882 38.8145C217.882 37.891 218.03 37.0931 218.326 36.4206C218.622 35.7392 219.048 35.2192 219.604 34.8606C220.168 34.493 220.841 34.3092 221.621 34.3092C222.401 34.3092 223.073 34.493 223.638 34.8606C224.203 35.2192 224.633 35.7392 224.929 36.4206C225.234 37.0931 225.387 37.891 225.387 38.8145C225.387 39.738 225.234 40.5404 224.929 41.2218C224.633 41.8942 224.203 42.4098 223.638 42.7684C223.073 43.127 222.401 43.3064 221.621 43.3064ZM221.621 42.6608C222.482 42.6608 223.141 42.3336 223.598 41.6791C224.064 41.0246 224.297 40.0697 224.297 38.8145C224.297 37.5683 224.064 36.6134 223.598 35.9499C223.141 35.2865 222.482 34.9547 221.621 34.9547C220.769 34.9547 220.115 35.2865 219.657 35.9499C219.2 36.6134 218.971 37.5683 218.971 38.8145C218.971 40.0697 219.196 41.0246 219.644 41.6791C220.101 42.3336 220.76 42.6608 221.621 42.6608ZM227.3 34.4302H229.506C230.384 34.4302 231.061 34.632 231.537 35.0354C232.021 35.4299 232.263 35.9544 232.263 36.6089C232.263 37.0931 232.142 37.4965 231.9 37.8193C231.658 38.1421 231.357 38.3976 230.999 38.5859C231.519 38.7293 231.927 38.9804 232.222 39.339C232.527 39.6976 232.68 40.1504 232.68 40.6973C232.68 41.4863 232.415 42.096 231.886 42.5263C231.366 42.9567 230.577 43.1719 229.519 43.1719H227.3V34.4302ZM229.909 38.3841C230.098 38.3841 230.295 38.3303 230.501 38.2228C230.716 38.1152 230.9 37.9358 231.052 37.6848C231.205 37.4248 231.281 37.0886 231.281 36.6762C231.281 36.1292 231.115 35.7168 230.783 35.4389C230.452 35.1609 230.012 35.022 229.465 35.022H228.322V38.3841H229.909ZM229.479 42.5801C230.94 42.5801 231.671 41.9391 231.671 40.657C231.671 40.0832 231.514 39.6528 231.2 39.3659C230.887 39.079 230.474 38.9355 229.963 38.9355H228.322V42.5801H229.479ZM233.634 43.1719L236.58 34.4302H237.777L240.668 43.1719H239.606L238.691 40.4821H235.262L234.347 43.1719H233.634ZM235.45 39.9307H238.516L236.997 35.2102L235.45 39.9307ZM242.233 34.4302H244.331C245.228 34.4302 245.922 34.6633 246.416 35.1296C246.918 35.5958 247.169 36.2861 247.169 37.2007C247.169 37.8821 247.034 38.4424 246.765 38.8817C246.496 39.3121 246.147 39.6259 245.716 39.8231C245.295 40.0114 244.842 40.1056 244.358 40.1056H243.255V43.1719H242.233V34.4302ZM244.21 39.5407C245.465 39.5407 246.093 38.7742 246.093 37.241C246.093 36.4879 245.931 35.932 245.609 35.5734C245.286 35.2058 244.824 35.022 244.223 35.022H243.255V39.5407H244.21ZM248.905 43.1719V34.4302H249.927V41.4639L249.86 41.9077H249.873L254.123 34.5782L254.19 34.4302H255.145V43.1719H254.136V36.2054L254.19 35.7078H254.177L249.94 43.0239L249.873 43.1719H248.905ZM260.892 43.3064C259.682 43.3064 258.74 42.9163 258.068 42.1363C257.396 41.3473 257.059 40.2625 257.059 38.8817C257.059 37.9583 257.212 37.1513 257.517 36.461C257.83 35.7706 258.27 35.2416 258.835 34.874C259.408 34.4975 260.072 34.3092 260.825 34.3092C261.237 34.3092 261.632 34.363 262.008 34.4706C262.394 34.5782 262.721 34.6992 262.99 34.8337C263.259 34.9682 263.394 35.0399 263.394 35.0489L263.273 35.6944C263.273 35.6854 263.143 35.6182 262.883 35.4927C262.623 35.3671 262.318 35.2506 261.968 35.143C261.627 35.0354 261.282 34.9816 260.933 34.9816C260.063 34.9816 259.381 35.3134 258.888 35.9768C258.395 36.6313 258.149 37.5907 258.149 38.8548C258.149 40.1011 258.4 41.0425 258.902 41.6791C259.404 42.3156 260.108 42.6339 261.013 42.6339C261.488 42.6339 261.905 42.5353 262.264 42.3381C262.623 42.1408 262.905 41.9301 263.111 41.706C263.326 41.4818 263.434 41.3518 263.434 41.316L263.811 41.7463C263.811 41.7911 263.694 41.948 263.461 42.217C263.228 42.477 262.892 42.7236 262.452 42.9567C262.022 43.1898 261.502 43.3064 260.892 43.3064ZM266.666 43.1719V35.0758H264.178V34.4302H270.189V35.0758H267.688V43.1719H266.666ZM271.547 34.4302H273.753C274.631 34.4302 275.308 34.632 275.783 35.0354C276.267 35.4299 276.51 35.9544 276.51 36.6089C276.51 37.0931 276.389 37.4965 276.146 37.8193C275.904 38.1421 275.604 38.3976 275.245 38.5859C275.765 38.7293 276.173 38.9804 276.469 39.339C276.774 39.6976 276.926 40.1504 276.926 40.6973C276.926 41.4863 276.662 42.096 276.133 42.5263C275.613 42.9567 274.824 43.1719 273.766 43.1719H271.547V34.4302ZM274.156 38.3841C274.344 38.3841 274.542 38.3303 274.748 38.2228C274.963 38.1152 275.147 37.9358 275.299 37.6848C275.452 37.4248 275.528 37.0886 275.528 36.6762C275.528 36.1292 275.362 35.7168 275.03 35.4389C274.698 35.1609 274.259 35.022 273.712 35.022H272.569V38.3841H274.156ZM273.726 42.5801C275.187 42.5801 275.918 41.9391 275.918 40.657C275.918 40.0832 275.761 39.6528 275.447 39.3659C275.133 39.079 274.721 38.9355 274.21 38.9355H272.569V42.5801H273.726ZM281.956 43.3064C281.176 43.3064 280.504 43.127 279.939 42.7684C279.383 42.4098 278.957 41.8942 278.661 41.2218C278.365 40.5404 278.217 39.738 278.217 38.8145C278.217 37.891 278.365 37.0931 278.661 36.4206C278.957 35.7392 279.383 35.2192 279.939 34.8606C280.504 34.493 281.176 34.3092 281.956 34.3092C282.736 34.3092 283.409 34.493 283.973 34.8606C284.538 35.2192 284.969 35.7392 285.265 36.4206C285.569 37.0931 285.722 37.891 285.722 38.8145C285.722 39.738 285.569 40.5404 285.265 41.2218C284.969 41.8942 284.538 42.4098 283.973 42.7684C283.409 43.127 282.736 43.3064 281.956 43.3064ZM281.956 42.6608C282.817 42.6608 283.476 42.3336 283.933 41.6791C284.399 41.0246 284.632 40.0697 284.632 38.8145C284.632 37.5683 284.399 36.6134 283.933 35.9499C283.476 35.2865 282.817 34.9547 281.956 34.9547C281.104 34.9547 280.45 35.2865 279.993 35.9499C279.535 36.6134 279.307 37.5683 279.307 38.8145C279.307 40.0697 279.531 41.0246 279.979 41.6791C280.436 42.3336 281.095 42.6608 281.956 42.6608ZM292.442 43.3064C291.797 43.3064 291.276 43.2077 290.882 43.0105C290.487 42.8043 290.205 42.5891 290.035 42.365C289.864 42.1318 289.779 41.9884 289.779 41.9346L290.156 41.4639C290.156 41.4998 290.232 41.6208 290.384 41.827C290.546 42.0243 290.788 42.2125 291.111 42.3919C291.433 42.5622 291.841 42.6474 292.334 42.6474C292.944 42.6474 293.415 42.4815 293.747 42.1498C294.087 41.818 294.258 41.3429 294.258 40.7242C294.258 39.5676 293.693 38.9893 292.563 38.9893L291.312 39.0431V38.3976L292.63 38.4514C292.846 38.4424 293.061 38.3662 293.276 38.2228C293.491 38.0793 293.67 37.8686 293.814 37.5907C293.957 37.3127 294.029 36.981 294.029 36.5955C294.029 35.4927 293.482 34.9413 292.388 34.9413C292.083 34.9413 291.792 34.9906 291.514 35.0892C291.236 35.1789 290.999 35.282 290.801 35.3985C290.613 35.5061 290.519 35.5644 290.519 35.5734L290.398 34.9951C290.398 34.9861 290.505 34.9233 290.721 34.8068C290.936 34.6813 291.205 34.5692 291.528 34.4706C291.85 34.363 292.191 34.3092 292.55 34.3092C293.374 34.3092 294.002 34.5064 294.432 34.9009C294.863 35.2954 295.078 35.8334 295.078 36.5148C295.078 37.0258 294.939 37.4607 294.661 37.8193C294.392 38.1779 294.06 38.4559 293.666 38.6531C294.204 38.7697 294.621 38.9983 294.917 39.339C295.221 39.6797 295.374 40.1504 295.374 40.7511C295.374 41.2532 295.253 41.697 295.011 42.0825C294.778 42.4681 294.437 42.7684 293.989 42.9836C293.549 43.1988 293.034 43.3064 292.442 43.3064ZM303.534 43.3064C302.754 43.3064 302.082 43.127 301.517 42.7684C300.961 42.4098 300.535 41.8942 300.24 41.2218C299.944 40.5404 299.796 39.738 299.796 38.8145C299.796 37.891 299.944 37.0931 300.24 36.4206C300.535 35.7392 300.961 35.2192 301.517 34.8606C302.082 34.493 302.754 34.3092 303.534 34.3092C304.315 34.3092 304.987 34.493 305.552 34.8606C306.117 35.2192 306.547 35.7392 306.843 36.4206C307.148 37.0931 307.3 37.891 307.3 38.8145C307.3 39.738 307.148 40.5404 306.843 41.2218C306.547 41.8942 306.117 42.4098 305.552 42.7684C304.987 43.127 304.315 43.3064 303.534 43.3064ZM303.534 42.6608C304.395 42.6608 305.054 42.3336 305.511 41.6791C305.978 41.0246 306.211 40.0697 306.211 38.8145C306.211 37.5683 305.978 36.6134 305.511 35.9499C305.054 35.2865 304.395 34.9547 303.534 34.9547C302.683 34.9547 302.028 35.2865 301.571 35.9499C301.114 36.6134 300.885 37.5683 300.885 38.8145C300.885 40.0697 301.109 41.0246 301.558 41.6791C302.015 42.3336 302.674 42.6608 303.534 42.6608ZM309.214 34.4302H313.625V35.0758H310.236V37.9538H311.245C312.276 37.9538 313.074 38.1645 313.638 38.5859C314.203 39.0073 314.486 39.6349 314.486 40.4687C314.486 41.3294 314.217 41.9974 313.679 42.4725C313.141 42.9388 312.352 43.1719 311.312 43.1719H309.214V34.4302ZM311.271 42.5801C312.007 42.5801 312.554 42.4143 312.912 42.0825C313.271 41.7418 313.45 41.2128 313.45 40.4956C313.45 39.8052 313.262 39.3031 312.885 38.9893C312.518 38.6755 311.971 38.5186 311.245 38.5186H310.236V42.5801H311.271ZM316.385 43.1719L316.425 34.4302L316.452 34.4706L316.439 34.4302H317.689L320.769 41.9211H320.782L323.862 34.4302H325.046L325.086 43.1719H324.091L324.05 35.6809H324.037L321.011 43.1719H320.191L317.151 35.6809L317.124 43.1719H316.385ZM327.614 43.1719V34.4302H332.321V35.0758H328.636V38.4379H332.012V39.0566H328.636V42.5263H332.617V43.1719H327.614ZM333.731 43.1719L336.353 38.411L333.973 34.4302H334.82L336.972 38.1421H338.276V34.4302H339.285V38.1286H340.536L342.943 34.4302H343.79L341.195 38.2362L344.194 43.1719H342.997L340.415 38.7742H339.285V43.1719H338.276V38.7742H337.147L334.914 43.1719H333.731ZM346.027 43.1719V34.4302H350.734V35.0758H347.049V38.4379H350.425V39.0566H347.049V42.5263H351.03V43.1719H346.027ZM352.843 43.1719V34.4302H353.865V38.3572H357.86V34.4302H358.882V43.1719H357.86V38.9759H353.865V43.1719H352.843ZM367.834 43.3064C366.705 43.3064 365.808 42.9388 365.145 42.2036C364.49 41.4684 364.136 40.4508 364.082 39.1507H362.442V43.1719H361.419V34.4302H362.442V38.5321H364.082C364.127 37.2231 364.477 36.192 365.131 35.4389C365.795 34.6857 366.696 34.3092 367.834 34.3092C368.615 34.3092 369.287 34.493 369.852 34.8606C370.426 35.2192 370.86 35.7392 371.156 36.4206C371.461 37.0931 371.614 37.891 371.614 38.8145C371.614 39.738 371.461 40.5359 371.156 41.2084C370.86 41.8808 370.426 42.4008 369.852 42.7684C369.287 43.127 368.615 43.3064 367.834 43.3064ZM367.834 42.6877C368.695 42.6877 369.354 42.356 369.811 41.6925C370.278 41.0201 370.511 40.0607 370.511 38.8145C370.511 37.5772 370.278 36.6224 369.811 35.9499C369.345 35.2685 368.686 34.9278 367.834 34.9278C366.983 34.9278 366.324 35.2685 365.858 35.9499C365.391 36.6224 365.158 37.5772 365.158 38.8145C365.158 40.0607 365.391 41.0201 365.858 41.6925C366.324 42.356 366.983 42.6877 367.834 42.6877ZM376.654 34.4302H378.86C379.739 34.4302 380.415 34.632 380.891 35.0354C381.375 35.4299 381.617 35.9544 381.617 36.6089C381.617 37.0931 381.496 37.4965 381.254 37.8193C381.012 38.1421 380.711 38.3976 380.353 38.5859C380.873 38.7293 381.281 38.9804 381.577 39.339C381.881 39.6976 382.034 40.1504 382.034 40.6973C382.034 41.4863 381.769 42.096 381.24 42.5263C380.72 42.9567 379.931 43.1719 378.873 43.1719H376.654V34.4302ZM379.263 38.3841C379.452 38.3841 379.649 38.3303 379.855 38.2228C380.07 38.1152 380.254 37.9358 380.407 37.6848C380.559 37.4248 380.635 37.0886 380.635 36.6762C380.635 36.1292 380.469 35.7168 380.138 35.4389C379.806 35.1609 379.366 35.022 378.82 35.022H377.676V38.3841H379.263ZM378.833 42.5801C380.294 42.5801 381.025 41.9391 381.025 40.657C381.025 40.0832 380.868 39.6528 380.554 39.3659C380.241 39.079 379.828 38.9355 379.317 38.9355H377.676V42.5801H378.833ZM383.943 43.1719V34.4302H384.966V43.1719H383.943ZM386.682 42.5263H387.408C387.785 41.7732 388.067 40.787 388.256 39.5676C388.444 38.3393 388.538 36.6268 388.538 34.4302H392.99V42.5263H394.012L393.85 45.4447H393.191L393.043 43.1719H387.597L387.355 45.4447H386.749L386.682 42.5263ZM391.981 42.5263V35.0758H389.251C389.233 37.0213 389.13 38.5635 388.942 39.7021C388.753 40.8408 388.484 41.7822 388.135 42.5263H391.981ZM395.724 43.1719V34.4302H401.561V43.1719H400.539V35.0758H396.746V43.1719H395.724ZM407.223 43.3064C406.443 43.3064 405.771 43.127 405.206 42.7684C404.65 42.4098 404.224 41.8942 403.928 41.2218C403.633 40.5404 403.485 39.738 403.485 38.8145C403.485 37.891 403.633 37.0931 403.928 36.4206C404.224 35.7392 404.65 35.2192 405.206 34.8606C405.771 34.493 406.443 34.3092 407.223 34.3092C408.003 34.3092 408.676 34.493 409.241 34.8606C409.806 35.2192 410.236 35.7392 410.532 36.4206C410.837 37.0931 410.989 37.891 410.989 38.8145C410.989 39.738 410.837 40.5404 410.532 41.2218C410.236 41.8942 409.806 42.4098 409.241 42.7684C408.676 43.127 408.003 43.3064 407.223 43.3064ZM407.223 42.6608C408.084 42.6608 408.743 42.3336 409.2 41.6791C409.667 41.0246 409.9 40.0697 409.9 38.8145C409.9 37.5683 409.667 36.6134 409.2 35.9499C408.743 35.2865 408.084 34.9547 407.223 34.9547C406.372 34.9547 405.717 35.2865 405.26 35.9499C404.803 36.6134 404.574 37.5683 404.574 38.8145C404.574 40.0697 404.798 41.0246 405.246 41.6791C405.704 42.3336 406.363 42.6608 407.223 42.6608ZM412.903 34.4302H415.108C415.987 34.4302 416.664 34.632 417.139 35.0354C417.623 35.4299 417.865 35.9544 417.865 36.6089C417.865 37.0931 417.744 37.4965 417.502 37.8193C417.26 38.1421 416.96 38.3976 416.601 38.5859C417.121 38.7293 417.529 38.9804 417.825 39.339C418.13 39.6976 418.282 40.1504 418.282 40.6973C418.282 41.4863 418.018 42.096 417.489 42.5263C416.969 42.9567 416.18 43.1719 415.122 43.1719H412.903V34.4302ZM415.512 38.3841C415.7 38.3841 415.897 38.3303 416.104 38.2228C416.319 38.1152 416.503 37.9358 416.655 37.6848C416.807 37.4248 416.884 37.0886 416.884 36.6762C416.884 36.1292 416.718 35.7168 416.386 35.4389C416.054 35.1609 415.615 35.022 415.068 35.022H413.925V38.3841H415.512ZM415.081 42.5801C416.543 42.5801 417.274 41.9391 417.274 40.657C417.274 40.0832 417.117 39.6528 416.803 39.3659C416.489 39.079 416.077 38.9355 415.566 38.9355H413.925V42.5801H415.081ZM420.192 43.1719V34.4302H421.214V43.1719H420.192ZM422.931 42.5263H423.657C424.033 41.7732 424.316 40.787 424.504 39.5676C424.692 38.3393 424.787 36.6268 424.787 34.4302H429.238V42.5263H430.26L430.099 45.4447H429.44L429.292 43.1719H423.845L423.603 45.4447H422.998L422.931 42.5263ZM428.229 42.5263V35.0758H425.499C425.481 37.0213 425.378 38.5635 425.19 39.7021C425.002 40.8408 424.733 41.7822 424.383 42.5263H428.229ZM431.018 43.1719L433.963 34.4302H435.16L438.051 43.1719H436.989L436.074 40.4821H432.645L431.731 43.1719H431.018ZM432.833 39.9307H435.9L434.38 35.2102L432.833 39.9307ZM439.186 43.266C439.025 43.266 438.895 43.2526 438.796 43.2257C438.706 43.2077 438.652 43.1943 438.635 43.1853L438.675 42.4591C438.693 42.4681 438.733 42.4815 438.796 42.4994C438.859 42.5084 438.93 42.5129 439.011 42.5129C440.275 42.5129 440.907 39.8187 440.907 34.4302H445.171V43.1719H444.162V35.0758H441.607C441.598 37.7476 441.383 39.7828 440.961 41.1815C440.54 42.5712 439.948 43.266 439.186 43.266ZM447.707 34.4302H448.729V37.9538H449.764C450.786 37.9538 451.575 38.1645 452.131 38.5859C452.696 39.0073 452.978 39.6349 452.978 40.4687C452.978 41.3294 452.709 41.9974 452.171 42.4725C451.643 42.9388 450.858 43.1719 449.818 43.1719H447.707V34.4302ZM449.791 42.5801C450.517 42.5801 451.055 42.4098 451.405 42.0691C451.764 41.7194 451.943 41.1949 451.943 40.4956C451.943 39.8142 451.755 39.3166 451.378 39.0028C451.01 38.68 450.472 38.5186 449.764 38.5186H448.729V42.5801H449.791ZM454.877 43.1719V34.4302H455.9V38.3572H459.894V34.4302H460.916V43.1719H459.894V38.9759H455.9V43.1719H454.877ZM463.454 43.1719V34.4302H464.476V43.1719H463.454ZM470.227 43.3064C469.017 43.3064 468.075 42.9163 467.403 42.1363C466.73 41.3473 466.394 40.2625 466.394 38.8817C466.394 37.9583 466.547 37.1513 466.851 36.461C467.165 35.7706 467.605 35.2416 468.169 34.874C468.743 34.4975 469.407 34.3092 470.16 34.3092C470.572 34.3092 470.967 34.363 471.343 34.4706C471.729 34.5782 472.056 34.6992 472.325 34.8337C472.594 34.9682 472.728 35.0399 472.728 35.0489L472.607 35.6944C472.607 35.6854 472.477 35.6182 472.217 35.4927C471.957 35.3671 471.653 35.2506 471.303 35.143C470.962 35.0354 470.617 34.9816 470.267 34.9816C469.398 34.9816 468.716 35.3134 468.223 35.9768C467.73 36.6313 467.483 37.5907 467.483 38.8548C467.483 40.1011 467.735 41.0425 468.237 41.6791C468.739 42.3156 469.442 42.6339 470.348 42.6339C470.823 42.6339 471.24 42.5353 471.599 42.3381C471.957 42.1408 472.24 41.9301 472.446 41.706C472.661 41.4818 472.769 41.3518 472.769 41.316L473.145 41.7463C473.145 41.7911 473.029 41.948 472.796 42.217C472.563 42.477 472.226 42.7236 471.787 42.9567C471.357 43.1898 470.837 43.3064 470.227 43.3064ZM476.001 43.1719V35.0758H473.513V34.4302H479.524V35.0758H477.023V43.1719H476.001ZM487.297 43.3064C486.167 43.3064 485.27 42.9388 484.607 42.2036C483.953 41.4684 483.598 40.4508 483.545 39.1507H481.904V43.1719H480.882V34.4302H481.904V38.5321H483.545C483.589 37.2231 483.939 36.192 484.594 35.4389C485.257 34.6857 486.158 34.3092 487.297 34.3092C488.077 34.3092 488.749 34.493 489.314 34.8606C489.888 35.2192 490.323 35.7392 490.619 36.4206C490.923 37.0931 491.076 37.891 491.076 38.8145C491.076 39.738 490.923 40.5359 490.619 41.2084C490.323 41.8808 489.888 42.4008 489.314 42.7684C488.749 43.127 488.077 43.3064 487.297 43.3064ZM487.297 42.6877C488.157 42.6877 488.816 42.356 489.274 41.6925C489.74 41.0201 489.973 40.0607 489.973 38.8145C489.973 37.5772 489.74 36.6224 489.274 35.9499C488.807 35.2685 488.149 34.9278 487.297 34.9278C486.445 34.9278 485.786 35.2685 485.32 35.9499C484.854 36.6224 484.62 37.5772 484.62 38.8145C484.62 40.0607 484.854 41.0201 485.32 41.6925C485.786 42.356 486.445 42.6877 487.297 42.6877ZM211.719 74.1719L219.465 50.8608H224.953L232.197 74.1719H226.961L224.953 67.6448H216.847L214.732 74.1719H211.719ZM217.565 65.3854H224.271L221.079 54.4113H221.008L217.565 65.3854ZM235.654 74.5305C235.08 74.5305 234.614 74.4827 234.255 74.3871C233.897 74.3153 233.717 74.2675 233.717 74.2436L233.897 71.0876C233.968 71.1115 234.112 71.1474 234.327 71.1952C234.542 71.243 234.757 71.267 234.973 71.267C236.646 71.267 237.878 69.677 238.667 66.4972C239.479 63.2934 239.886 58.0813 239.886 50.8608H252.617V74.1719H247.668V53.4429H242.719C242.695 60.496 242.074 65.7799 240.854 69.2945C239.635 72.7852 237.901 74.5305 235.654 74.5305ZM258.138 50.8608H263.087V59.7907H264.772C267.713 59.7907 269.973 60.3645 271.551 61.5122C273.129 62.6598 273.918 64.3812 273.918 66.6765C273.918 69.0673 273.152 70.9203 271.622 72.2353C270.116 73.5263 267.881 74.1719 264.916 74.1719H258.138V50.8608ZM264.808 71.8408C266.219 71.8408 267.235 71.4582 267.857 70.6931C268.478 69.9042 268.789 68.6131 268.789 66.8199C268.789 65.0507 268.466 63.8194 267.821 63.126C267.175 62.4087 266.159 62.0501 264.772 62.0501H263.087V71.8408H264.808ZM277.961 74.1719L278.247 50.8608H284.237L290.764 68.0393H290.907L297.327 50.8608H302.885L303.137 74.1719H298.295L298.044 56.5272H297.936L291.445 74.1719H287.751L281.26 56.5272H281.152L281.045 74.1719H277.961ZM306.595 74.1719L314.342 50.8608H319.829L327.073 74.1719H321.837L319.829 67.6448H311.724L309.608 74.1719H306.595ZM312.441 65.3854H319.147L315.956 54.4113H315.884L312.441 65.3854ZM339.635 74.1719V50.8608H353.622V53.4429H344.585V61.1177H352.546V63.6281H344.585V71.5897H354.124V74.1719H339.635ZM358.443 74.1719V50.8608H363.392V61.0459H371.461V50.8608H376.41V74.1719H371.461V63.5564H363.392V74.1719H358.443ZM381.943 74.1719V50.8608H395.929V53.4429H386.892V61.1177H394.854V63.6281H386.892V71.5897H396.432V74.1719H381.943ZM400.75 50.8608H407.887C410.541 50.8608 412.597 51.5302 414.055 52.8691C415.538 54.1841 416.279 56.1446 416.279 58.7507C416.279 60.6156 415.872 62.1577 415.059 63.3771C414.246 64.5964 413.206 65.493 411.939 66.0668C410.672 66.6167 409.357 66.8916 407.994 66.8916H405.699V74.1719H400.75V50.8608ZM407.421 64.5964C408.616 64.5964 409.501 64.19 410.074 63.3771C410.648 62.5402 410.935 61.0699 410.935 58.9659C410.935 56.838 410.648 55.3437 410.074 54.483C409.501 53.6223 408.616 53.1919 407.421 53.1919H405.699V64.5964H407.421ZM417.936 71.5897H420.339C421.343 69.4858 422.048 66.9156 422.454 63.8791C422.885 60.8188 423.1 56.4794 423.1 50.8608H436.549V71.5897H439.454L438.593 80.4479H435.796L435.007 74.1719H422.239L420.805 80.4479H418.33L417.936 71.5897ZM431.6 71.5897V53.4429H426.005C425.957 58.0573 425.718 61.7393 425.288 64.4888C424.857 67.2144 424.188 69.5814 423.279 71.5897H431.6ZM441.049 74.1719L447.755 60.5439L442.089 50.8608H445.639L450.409 59.6831H453.601V50.8608H458.55V59.6831H461.348L466.942 50.8608H470.493L464.181 59.7549L471.64 74.1719H465.866L460.343 62.2653H458.55V74.1719H453.601V62.3012H451.557L446.859 74.1719H441.049ZM475.138 74.1719V50.8608H480.087V74.1719H475.138Z" fill="#2F5597"/>
<path d="M43.4281 53H27.5278V51.1788H32.2208L26.9674 37.59H12.4681L7.21467 51.1788H10.787C11.0205 51.1788 11.2539 51.2022 11.4874 51.2489C12.1879 51.3423 12.5381 51.926 12.5381 53H0V51.1788H4.41285L20.033 10.9728H23.185L39.2954 51.1788H41.6069C41.8404 51.1788 42.0739 51.2022 42.3074 51.2489C43.0545 51.3423 43.4281 51.926 43.4281 53ZM26.1269 35.5587L19.6827 18.8179L13.2386 35.5587H26.1269ZM69.0815 53H37.7012V51.1788H43.3048V12.794H37.7012V10.9728H55.983V12.794H50.0292V51.1788H59.2051C59.8588 51.1788 60.4893 51.1088 61.0963 50.9687C63.6646 50.3149 65.4858 47.9334 66.5598 43.8241L67.8907 38.7808H69.4317L69.0815 53ZM116.589 10.9728V12.794H110.985V51.1788H114.768C115.001 51.1788 115.235 51.2022 115.468 51.2489C116.215 51.389 116.589 51.9727 116.589 53H99.0076V51.1788H104.611V17.487L88.711 53.4203H87.24L71.9701 21.7598V51.1788H75.7526C75.9861 51.1788 76.2196 51.2022 76.453 51.2489C77.2002 51.389 77.5738 51.9727 77.5738 53H63.5647V51.1788H69.1683V12.794H63.5647V10.9728H74.0715L90.0418 44.3844L104.611 10.9728H116.589ZM58.995 98H41.0634V96.1788H46.667V57.794H41.0634V55.9728H62.3571C65.9995 55.9728 69.0815 56.8134 71.6031 58.4945C74.6384 60.5958 76.1561 63.3976 76.1561 66.8999C76.1561 68.3008 75.8759 69.6784 75.3155 71.0326C73.7278 74.5815 70.6925 76.9397 66.2096 78.1071L77.4169 96.1788H79.7284C80.0085 96.1788 80.2654 96.2022 80.4989 96.2489C81.1059 96.3423 81.4094 96.926 81.4094 98H70.4824L59.4152 78.7375H53.3913V96.1788H58.995V98ZM59.8355 57.794H53.3913V76.7062H60.1157C62.1236 76.7062 63.8514 76.1225 65.299 74.9551C67.6339 73.1339 68.8013 70.4955 68.8013 67.04C68.8013 65.5457 68.5211 64.1214 67.9608 62.7672C66.4665 59.4517 63.758 57.794 59.8355 57.794ZM101.809 79.0177H119.811V80.8389H114.698V98L108.254 95.9687C108.067 96.0621 107.857 96.1788 107.623 96.3189C104.728 97.9066 101.483 98.7005 97.8869 98.7005C93.0304 98.7005 88.6876 97.2529 84.8585 94.3576C79.4416 90.2483 76.7332 84.3645 76.7332 76.7062C76.7332 70.1687 78.8813 64.8919 83.1774 60.876C87.1933 57.1402 92.0732 55.2724 97.8169 55.2724C101.226 55.2724 104.401 55.9962 107.343 57.4438L113.577 56.1129L113.857 69.9819H111.966C110.985 66.2928 109.818 63.5144 108.464 61.6465C106.316 58.7513 102.86 57.3037 98.097 57.3037C97.1631 57.3037 96.2525 57.3737 95.3653 57.5138C88.1273 58.868 84.5083 65.3589 84.5083 76.9864C84.5083 78.1538 84.555 79.2979 84.6483 80.4186C85.3488 91.2056 89.855 96.5991 98.1671 96.5991C101.996 96.4123 105.288 95.0114 108.043 92.3964V80.8389H101.809V79.0177Z" fill="#2F5597"/>
<path d="M153.59 53H137.689V51.1788H142.382L137.129 37.59H122.63L117.376 51.1788H120.949C121.182 51.1788 121.416 51.2022 121.649 51.2489C122.35 51.3423 122.7 51.926 122.7 53H110.162V51.1788H114.574L130.195 10.9728H133.347L149.457 51.1788H151.769C152.002 51.1788 152.236 51.2022 152.469 51.2489C153.216 51.3423 153.59 51.926 153.59 53ZM136.289 35.5587L129.844 18.8179L123.4 35.5587H136.289ZM31.8706 57.794V55.9728H46.1599V57.794H40.5562V97.6498L37.1941 98.3502L9.7363 64.3783V96.1788H13.869C14.1025 96.1788 14.3359 96.2022 14.5694 96.2489C15.3166 96.389 15.6901 96.9727 15.6901 98H1.33086V96.1788H6.93448V57.794H1.33086V55.9728H11.4874L37.7544 88.4038V57.794H31.8706Z" fill="#E1B090"/>
<path d="M0 99.7614L38.4734 99.7573C110.661 166.639 197.966 112.012 181.239 38.625L147.565 38.6291" stroke="url(#paint0_linear_175_23)" stroke-width="2.24145"/>
<defs>
<linearGradient id="paint0_linear_175_23" x1="91.1979" y1="38.625" x2="91.1979" y2="131.325" gradientUnits="userSpaceOnUse">
<stop offset="0.9999" stop-color="#E4BCA2"/>
<stop offset="1" stop-color="#E1B090" stop-opacity="0"/>
</linearGradient>
</defs>
</svg>
