<svg width="45" height="44" viewBox="0 0 45 44" fill="none" xmlns="http://www.w3.org/2000/svg">
<g id="&#240;&#159;&#166;&#134; icon &#34;newspaper folding&#34;">
<g id="Group">
<g id="Vector">
<path d="M19.36 40.3177L18.4434 32.9844Z" fill="white" fill-opacity="0.01"/>
<path d="M19.36 40.3177L18.4434 32.9844" stroke="#E1B090" stroke-width="1.82262" stroke-linecap="round" stroke-linejoin="round"/>
</g>
<path id="Vector_2" d="M40.4427 40.3255V10.9922H23.026L23.9427 18.3255L24.8594 25.6589L25.776 32.9922L19.3594 40.3255H40.4427Z" fill="white" fill-opacity="0.01" stroke="#E1B090" stroke-width="1.82262" stroke-linecap="round" stroke-linejoin="round"/>
<g id="Vector_3">
<path d="M24.8594 25.6562H32.1927Z" fill="white" fill-opacity="0.01"/>
<path d="M24.8594 25.6562H32.1927" stroke="#E1B090" stroke-width="1.82262" stroke-linecap="round" stroke-linejoin="round"/>
</g>
<g id="Vector_4">
<path d="M23.9429 18.3203H32.1929Z" fill="white" fill-opacity="0.01"/>
<path d="M23.9429 18.3203H32.1929" stroke="#E1B090" stroke-width="1.82262" stroke-linecap="round" stroke-linejoin="round"/>
</g>
<path id="Vector_5" d="M3.77637 3.65625H22.1097L23.0264 10.9896L23.943 18.3229L24.8597 25.6563L25.7764 32.9896H18.443H3.77637V3.65625Z" fill="white" fill-opacity="0.01" stroke="#E1B090" stroke-width="1.82262" stroke-linecap="round" stroke-linejoin="round"/>
<g id="Vector_6">
<path d="M9.27637 10.9922H15.693Z" fill="white" fill-opacity="0.01"/>
<path d="M9.27637 10.9922H15.693" stroke="#E1B090" stroke-width="1.82262" stroke-linecap="round" stroke-linejoin="round"/>
</g>
<g id="Vector_7">
<path d="M9.27637 18.3203H16.6097Z" fill="white" fill-opacity="0.01"/>
<path d="M9.27637 18.3203H16.6097" stroke="#E1B090" stroke-width="1.82262" stroke-linecap="round" stroke-linejoin="round"/>
</g>
<g id="Vector_8">
<path d="M9.27637 25.6562H17.5264Z" fill="white" fill-opacity="0.01"/>
<path d="M9.27637 25.6562H17.5264" stroke="#E1B090" stroke-width="1.82262" stroke-linecap="round" stroke-linejoin="round"/>
</g>
</g>
</g>
</svg>
