<svg width="38" height="38" viewBox="0 0 38 38" fill="none" xmlns="http://www.w3.org/2000/svg">
<path d="M22.1923 14.2873V19.1671H26.5673C26.9038 19.1671 27.0721 19.5036 27.0721 19.8401L26.399 23.0373C26.399 23.2055 26.0625 23.3738 25.8942 23.3738H22.1923V35.6575H17.1442V23.5421H14.2836C13.9471 23.5421 13.7788 23.3738 13.7788 23.0373V19.8401C13.7788 19.5036 13.9471 19.3353 14.2836 19.3353H17.1442V13.7825C17.1442 10.9219 19.3317 8.73438 22.1923 8.73438H26.7355C27.0721 8.73438 27.2403 8.90264 27.2403 9.23918V13.2776C27.2403 13.6142 27.0721 13.7825 26.7355 13.7825H22.6971C22.3605 13.7825 22.1923 13.9507 22.1923 14.2873Z" stroke="#2F5597" stroke-width="4" stroke-miterlimit="10" stroke-linecap="round"/>
<path d="M23.875 35.6538H13.7788C5.36538 35.6538 2 32.2885 2 23.875V13.7788C2 5.36538 5.36538 2 13.7788 2H23.875C32.2885 2 35.6538 5.36538 35.6538 13.7788V23.875C35.6538 32.2885 32.2885 35.6538 23.875 35.6538Z" stroke="#2F5597" stroke-width="4" stroke-linecap="round" stroke-linejoin="round"/>
</svg>
