<svg width="48" height="48" viewBox="0 0 48 48" fill="none" xmlns="http://www.w3.org/2000/svg">
<path d="M21.2563 37.2C22.8415 31.425 28.3841 27.3 34.7686 27.982C40.8469 28.631 45.6789 33.79 45.985 39.928C46.0616 41.545 45.8429 43.096 45.3728 44.537C45.0886 45.417 44.2359 46 43.3066 46H10.7487C5.22975 46 1.09045 40.9195 2.17281 35.4742L8.82634 2H21.945L26.3179 9.7L16.949 16.443L14.2924 13" fill="#F2F2F2"/>
<path d="M21.2563 37.2C22.8415 31.425 28.3841 27.3 34.7686 27.982C40.8469 28.631 45.6789 33.79 45.985 39.928C46.0616 41.545 45.8429 43.096 45.3728 44.537C45.0886 45.417 44.2359 46 43.3066 46H10.7487C5.22975 46 1.09045 40.9195 2.17281 35.4742L8.82634 2H21.945L26.3179 9.7L16.949 16.443L14.2924 13" stroke="#E1B090" stroke-width="2.17367" stroke-miterlimit="2" stroke-linecap="round" stroke-linejoin="round"/>
<path d="M19 15L23.9852 33.557Z" fill="#F2F2F2"/>
<path d="M19 15L23.9852 33.557" stroke="#E1B090" stroke-width="2.17367" stroke-miterlimit="2" stroke-linecap="round" stroke-linejoin="round"/>
</svg>
